HIERARCHY
ROOT Hips
{
	OFFSET 0.000000 0.000000 0.000000
	CHANNELS 6 Xposition Yposition Zposition Zrotation Yrotation Xrotation 
	JOINT LowerBack
	{
		OFFSET 0.000000 0.000000 0.000000
		CHANNELS 3 Zrotation Yrotation Xrotation
		JOINT Spine
		{
			OFFSET 0.028270 2.035590 -0.193380
			CHANNELS 3 Zrotation Yrotation Xrotation
			JOINT Spine1
			{
				OFFSET 0.056720 2.048850 -0.042750
				CHANNELS 3 Zrotation Yrotation Xrotation
				JOINT Neck
				{
					OFFSET 0.000000 0.000000 0.000000
					CHANNELS 3 Zrotation Yrotation Xrotation
					JOINT Neck1
					{
						OFFSET -0.054170 1.746240 0.172020
						CHANNELS 3 Zrotation Yrotation Xrotation
						JOINT Head
						{
							OFFSET 0.104070 1.761360 -0.123970
							CHANNELS 3 Zrotation Yrotation Xrotation
							End Site
							{
								OFFSET 0.000000 0.000000 0.000000
							}
						}
					}
				}
				JOINT LeftShoulder
				{
					OFFSET 0.000000 0.000000 0.000000
					CHANNELS 3 Zrotation Yrotation Xrotation
					JOINT LeftArm
					{
						OFFSET 3.362410 1.200890 -0.311210
						CHANNELS 3 Zrotation Yrotation Xrotation
						JOINT LeftForeArm
						{
							OFFSET 4.983000 -0.000000 -0.000000
							CHANNELS 3 Zrotation Yrotation Xrotation
							JOINT LeftHand
							{
								OFFSET 3.483560 -0.000000 -0.000000
								CHANNELS 3 Zrotation Yrotation Xrotation
								JOINT LeftFingerBase
								{
									OFFSET 0.000000 0.000000 0.000000
									CHANNELS 3 Zrotation Yrotation Xrotation
									JOINT LeftHandIndex1
									{
										OFFSET 0.715260 -0.000000 -0.000000
										CHANNELS 3 Zrotation Yrotation Xrotation
										End Site
										{
											OFFSET 0.000000 0.000000 0.000000
										}
									}
								}
								JOINT LThumb
								{
									OFFSET 0.000000 0.000000 0.000000
									CHANNELS 3 Zrotation Yrotation Xrotation
									End Site
									{
										OFFSET 0.000000 0.000000 0.000000
									}
								}
							}
						}
					}
				}
				JOINT RightShoulder
				{
					OFFSET 0.000000 0.000000 0.000000
					CHANNELS 3 Zrotation Yrotation Xrotation
					JOINT RightArm
					{
						OFFSET -3.136600 1.374050 -0.404650
						CHANNELS 3 Zrotation Yrotation Xrotation
						JOINT RightForeArm
						{
							OFFSET -5.241900 -0.000000 -0.000000
							CHANNELS 3 Zrotation Yrotation Xrotation
							JOINT RightHand
							{
								OFFSET -3.444170 -0.000000 -0.000000
								CHANNELS 3 Zrotation Yrotation Xrotation
								JOINT RightFingerBase
								{
									OFFSET 0.000000 0.000000 0.000000
									CHANNELS 3 Zrotation Yrotation Xrotation
									JOINT RightHandIndex1
									{
										OFFSET -0.622530 -0.000000 -0.000000
										CHANNELS 3 Zrotation Yrotation Xrotation
										End Site
										{
											OFFSET 0.000000 0.000000 0.000000
										}
									}
								}
								JOINT RThumb
								{
									OFFSET 0.000000 0.000000 0.000000
									CHANNELS 3 Zrotation Yrotation Xrotation
									End Site
									{
										OFFSET 0.000000 0.000000 0.000000
									}
								}
							}
						}
					}
				}
			}
		}
	}
}
}
MOTION
Frames: 9
Frame Time: 0.008333
3.832007 17.357118 0.603857 -171.099097 -42.294913 -176.268798 -2.211483 -6.290604 -9.089604 -1.071393 -6.254295 -4.574171 -7.746361 -6.153313 -1.820183 17.798515 -12.140147 -0.535350 -1.703502 -0.245686 2.019321 0.000000 0.000000 0.000000 14.943987 -14.564188 5.062563 -12.200440 -5.788752 -34.202771 -1.896913 -8.699739 -0.065565 11.569816 -5.015410 -0.566063 -0.263140 0.442109 -0.000000 0.000000 0.000000 0.000000 0.000000 0.000000 0.000000 11.654671 -10.757833 -7.515996 89.864363 56.502334 38.076166 -177.736930 66.077834 179.735973 -23.835136 9.106032 -2.148547 0.476039 -0.862422 -0.000000 0.000000 0.000000 0.000000 0.000000 0.000000 0.000000 
3.831169 17.365141 0.632860 -170.947654 -42.300308 -176.264630 -2.502755 -6.658816 -8.715916 -1.100171 -6.574622 -4.475689 -7.688071 -6.483824 -1.790229 18.418133 -12.663739 -0.660806 -1.615655 -0.239335 1.987322 0.000000 0.000000 0.000000 16.682242 -15.668246 4.928682 -10.363448 -5.812358 -35.313842 -1.981215 -4.808127 -0.060075 10.830569 -4.176249 -0.448209 -0.281214 0.426960 0.000000 0.000000 0.000000 0.000000 0.000000 0.000000 0.000000 12.152669 -11.658376 -7.443505 89.221262 56.565885 37.320184 -177.681820 65.849982 179.737429 -23.834076 8.924076 -2.106578 0.472008 -0.852851 -0.000000 0.000000 0.000000 0.000000 0.000000 0.000000 0.000000 
3.827355 17.374541 0.662408 -170.814043 -42.305156 -176.225402 -2.729223 -6.999061 -8.347869 -1.113133 -6.877223 -4.384038 -7.624473 -6.797890 -1.771916 18.943340 -13.159849 -0.822712 -1.522502 -0.231916 1.945856 0.000000 0.000000 0.000000 18.388937 -16.546214 4.775658 -8.750786 -5.810362 -36.938662 -1.995536 -1.748294 -0.056280 10.282519 -3.444738 -0.357432 -0.295699 0.411111 -0.000000 0.000000 0.000000 0.000000 0.000000 0.000000 0.000000 12.511356 -12.505002 -7.381528 88.714990 56.512784 36.630102 -177.618834 65.626816 179.738522 -23.814037 8.815720 -2.079413 0.466732 -0.846073 -0.000000 0.000000 0.000000 0.000000 0.000000 0.000000 0.000000 
3.820221 17.384917 0.691800 -170.704118 -42.297807 -176.152774 -2.880206 -7.306324 -8.005906 -1.107116 -7.157910 -4.299989 -7.553276 -7.089966 -1.751229 19.354236 -13.621503 -1.019094 -1.423873 -0.223410 1.895512 0.000000 0.000000 0.000000 20.020165 -17.163725 4.622102 -7.302707 -5.865678 -39.196039 -1.928264 0.581585 -0.054346 9.985861 -2.928043 -0.300136 -0.307384 0.398668 0.000000 0.000000 0.000000 0.000000 0.000000 0.000000 0.000000 12.709648 -13.286601 -7.336190 88.355668 56.339329 36.023060 -177.546795 65.413614 179.739335 -23.771316 8.779412 -2.066458 0.460028 -0.841824 -0.000000 0.000000 0.000000 0.000000 0.000000 0.000000 0.000000 
3.809536 17.395788 0.720326 -170.620936 -42.271885 -176.048213 -2.953290 -7.577168 -7.707959 -1.080805 -7.413055 -4.225131 -7.471923 -7.355546 -1.719444 19.638829 -14.042845 -1.243674 -1.320801 -0.213959 1.838037 0.000000 0.000000 0.000000 21.529923 -17.527737 4.484541 -5.975605 -5.998061 -42.024936 -1.783739 2.231015 -0.054201 9.953093 -2.662786 -0.275222 -0.317888 0.392641 0.000000 0.000000 0.000000 0.000000 0.000000 0.000000 0.000000 12.739049 -13.994042 -7.308997 88.137268 56.048460 35.503535 -177.465450 65.213724 179.739947 -23.702846 8.807797 -2.065516 0.451796 -0.839733 -0.000000 0.000000 0.000000 0.000000 0.000000 0.000000 0.000000 
3.795498 17.406615 0.747397 -170.567280 -42.226794 -175.914085 -2.953720 -7.809756 -7.465944 -1.034345 -7.639756 -4.160433 -7.376304 -7.591195 -1.670749 19.794111 -14.420783 -1.490027 -1.214916 -0.203748 1.775132 0.000000 0.000000 0.000000 22.888440 -17.653766 4.373390 -4.755528 -6.227679 -45.267022 -1.575531 3.238403 -0.055553 10.130732 -2.650915 -0.279392 -0.328214 0.395083 0.000000 0.000000 0.000000 0.000000 0.000000 0.000000 0.000000 12.603085 -14.622524 -7.299523 88.038215 55.653913 35.063187 -177.374970 65.025986 179.740415 -23.608335 8.888417 -2.073688 0.442063 -0.839328 -0.000000 0.000000 0.000000 0.000000 0.000000 0.000000 0.000000 
3.778390 17.416891 0.772470 -170.542969 -42.166755 -175.752374 -2.893086 -8.003649 -7.286186 -0.969671 -7.835958 -4.106648 -7.262967 -7.794674 -1.603769 19.824895 -14.753466 -1.750436 -1.108815 -0.193056 1.708768 0.000000 0.000000 0.000000 24.084428 -17.574123 4.292074 -3.665995 -6.556153 -48.634044 -1.327106 3.608242 -0.058089 10.420108 -2.836512 -0.306050 -0.338660 0.406496 0.000000 0.000000 0.000000 0.000000 0.000000 0.000000 0.000000 12.316389 -15.168571 -7.304146 88.025350 55.174179 34.683363 -177.277100 64.851832 179.740787 -23.488703 9.006239 -2.087575 0.430953 -0.840116 -0.000000 0.000000 0.000000 0.000000 0.000000 0.000000 0.000000 
3.758857 17.426197 0.795218 -170.547974 -42.101056 -175.565675 -2.786103 -8.159504 -7.169032 -0.890021 -8.000570 -4.063826 -7.130188 -7.964945 -1.520248 19.744120 -15.042061 -2.016669 -1.005775 -0.182226 1.641003 0.000000 0.000000 0.000000 25.121883 -17.325293 4.237234 -2.734071 -6.996523 -51.889481 -1.058554 3.375960 -0.061482 10.707476 -3.154160 -0.347294 -0.348196 0.426651 -0.000000 0.000000 0.000000 0.000000 0.000000 0.000000 0.000000 11.904219 -15.632499 -7.318665 88.060835 54.634805 34.342774 -177.174508 64.687600 179.741098 -23.348427 9.144617 -2.103777 0.418830 -0.841625 -0.000000 0.000000 0.000000 0.000000 0.000000 0.000000 0.000000 
3.737541 17.434141 0.815564 -170.579858 -42.041319 -175.358135 -2.646046 -8.279205 -7.108848 -0.798975 -8.133926 -4.030806 -6.978334 -8.102437 -1.422375 19.568776 -15.289244 -2.282401 -0.909287 -0.171591 1.573317 0.000000 0.000000 0.000000 26.005913 -16.930416 4.201996 -1.958694 -7.584217 -54.882747 -0.781927 2.626025 -0.065490 10.915177 -3.559169 -0.396928 -0.355399 0.455095 -0.000000 0.000000 0.000000 0.000000 0.000000 0.000000 0.000000 11.397428 -16.016228 -7.340009 88.111534 54.064910 34.024380 -177.070833 64.532526 179.741356 -23.194662 9.288956 -2.119591 0.406181 -0.843443 -0.000000 0.000000 0.000000 0.000000 0.000000 0.000000 0.000000 
